<svg width="36" height="35" viewBox="0 0 36 35" fill="none" xmlns="http://www.w3.org/2000/svg">
<path d="M35.8978 20.3947C33.3271 18.9349 30.5522 17.0169 29.9303 16.592C29.7831 16.4899 29.7119 16.573 29.6359 16.6418C28.6176 17.5747 27.7678 18.5408 27.1507 19.6137C26.5335 20.6843 26.1608 21.8237 26.0303 23.0248C26.0303 23.0248 25.8261 21.2872 25.3253 20.0766C24.955 19.1841 24.4565 18.4126 23.8369 17.7622C23.253 17.2115 22.5884 16.8032 21.8383 16.5445C21.0929 16.2858 20.2004 16.1528 19.1583 16.1528C18.4415 16.1528 17.8243 16.2264 17.3068 16.3712C16.787 16.5184 16.4452 16.7225 16.2837 16.9813C16.2837 16.9813 16.2695 17.2471 16.2837 17.4679C16.317 18.021 16.4285 18.5978 16.6256 19.1983C16.8202 19.7989 17.2855 20.981 18.5269 21.7881C18.9827 22.0848 19.6758 22.3435 20.5232 22.3934C20.8555 22.4124 22.7165 22.3435 22.9112 22.3435C23.1058 22.3435 23.958 22.2818 24.5443 22.5144C24.8505 22.6355 25.5911 22.956 25.7644 24.0764C25.8285 24.487 25.8593 25.014 25.8593 25.6644V29.9513C24.9573 30.4641 23.9153 30.851 22.7379 31.1097C21.551 31.3685 20.3072 31.4824 19.0088 31.4515C15.4007 31.4515 12.4858 30.1436 10.2592 27.5254C8.03268 24.9119 6.9194 21.4415 6.9194 17.1213C6.9194 12.5709 7.9496 9.03638 10.0147 6.51785C12.0775 4.0017 14.964 2.74124 18.667 2.74124C20.4852 2.74124 22.0614 3.04034 23.3954 3.64089C24.7271 4.24382 25.8641 5.16008 26.8088 6.39679C27.4236 7.14452 27.9767 8.08689 28.4657 9.22391C28.9523 10.3633 29.3914 11.7116 29.7807 13.2687H31.9741L31.3901 1.57099C29.795 1.08201 28.0432 0.725946 26.1252 0.498068C24.2072 0.272563 22.0804 0.15625 19.7399 0.15625C14.1498 0.15625 9.46166 1.91044 5.67795 5.42119C1.89186 8.92957 0 13.3162 0 18.5812C0 23.4544 1.43136 27.3948 4.28932 30.4C7.14728 33.4075 10.8859 34.9101 15.5004 34.9101C17.5466 34.9101 19.5357 34.5683 21.4703 33.887C23.4049 33.2057 25.0523 32.2942 26.4172 31.1548C26.4172 31.1548 31.599 34.6205 31.7058 34.6656C31.8791 34.7392 32.2067 34.7914 32.4132 34.5184C32.4844 34.4258 32.5081 34.2929 32.5081 34.1291C32.5081 34.1291 32.5319 26.1581 32.5319 24.76C32.5319 24.2235 32.6862 23.6277 33.2867 23.0248C33.8327 22.4765 34.6611 21.6599 35.8955 20.6843C36.102 20.53 35.9595 20.4279 35.8955 20.3923L35.8978 20.3947Z" fill="#181818"/>
</svg>
