<svg width="196" height="36" viewBox="0 0 196 36" fill="none" xmlns="http://www.w3.org/2000/svg">
<g id="Group 2">
<path id="Vector" d="M35.8978 21.3947C33.3271 19.9349 30.5522 18.0169 29.9303 17.592C29.7831 17.4899 29.7119 17.573 29.6359 17.6418C28.6176 18.5747 27.7678 19.5408 27.1507 20.6137C26.5335 21.6843 26.1608 22.8237 26.0303 24.0248C26.0303 24.0248 25.8261 22.2872 25.3253 21.0766C24.955 20.1841 24.4565 19.4126 23.8369 18.7622C23.253 18.2115 22.5884 17.8032 21.8383 17.5445C21.0929 17.2858 20.2004 17.1528 19.1583 17.1528C18.4415 17.1528 17.8243 17.2264 17.3068 17.3712C16.787 17.5184 16.4452 17.7225 16.2837 17.9813C16.2837 17.9813 16.2695 18.2471 16.2837 18.4679C16.317 19.021 16.4285 19.5978 16.6256 20.1983C16.8202 20.7989 17.2855 21.981 18.5269 22.7881C18.9827 23.0848 19.6758 23.3435 20.5232 23.3934C20.8555 23.4124 22.7165 23.3435 22.9112 23.3435C23.1058 23.3435 23.958 23.2818 24.5443 23.5144C24.8505 23.6355 25.5911 23.956 25.7644 25.0764C25.8285 25.487 25.8593 26.014 25.8593 26.6644V30.9513C24.9573 31.4641 23.9153 31.851 22.7379 32.1097C21.551 32.3685 20.3072 32.4824 19.0088 32.4515C15.4007 32.4515 12.4858 31.1436 10.2592 28.5254C8.03268 25.9119 6.9194 22.4415 6.9194 18.1213C6.9194 13.5709 7.9496 10.0364 10.0147 7.51785C12.0775 5.0017 14.964 3.74124 18.667 3.74124C20.4852 3.74124 22.0614 4.04034 23.3954 4.64089C24.7271 5.24382 25.8641 6.16008 26.8088 7.39679C27.4236 8.14452 27.9767 9.08689 28.4657 10.2239C28.9523 11.3633 29.3914 12.7116 29.7807 14.2687H31.9741L31.3901 2.57099C29.795 2.08201 28.0432 1.72595 26.1252 1.49807C24.2072 1.27256 22.0804 1.15625 19.7399 1.15625C14.1498 1.15625 9.46166 2.91044 5.67795 6.42119C1.89186 9.92957 0 14.3162 0 19.5812C0 24.4544 1.43136 28.3948 4.28932 31.4C7.14728 34.4075 10.8859 35.9101 15.5004 35.9101C17.5466 35.9101 19.5357 35.5683 21.4703 34.887C23.4049 34.2057 25.0523 33.2942 26.4172 32.1548C26.4172 32.1548 31.599 35.6205 31.7058 35.6656C31.8791 35.7392 32.2067 35.7914 32.4132 35.5184C32.4844 35.4258 32.5081 35.2929 32.5081 35.1291C32.5081 35.1291 32.5319 27.1581 32.5319 25.76C32.5319 25.2235 32.6862 24.6277 33.2867 24.0248C33.8327 23.4765 34.6611 22.6599 35.8955 21.6843C36.102 21.53 35.9595 21.4279 35.8955 21.3923L35.8978 21.3947Z" fill="#181818"/>
<g id="Group">
<path id="Vector_2" d="M55.4529 15.4365C53.6299 15.4365 52.1558 14.843 51.0259 13.6562C49.896 12.4693 49.3311 10.9121 49.3311 8.98703C49.3311 6.90764 50.0788 5.17482 51.5742 3.78856C53.0697 2.4023 54.9212 1.70917 57.1287 1.70917C58.0521 1.70917 58.8924 1.75427 59.6496 1.84447C60.4068 1.93467 61.1 2.07472 61.729 2.26699L61.9593 6.88628H61.0929C60.9386 6.26911 60.7653 5.73739 60.573 5.28876C60.3807 4.84012 60.1624 4.46744 59.9179 4.1731C59.5452 3.68649 59.0966 3.32331 58.5696 3.08593C58.0426 2.84856 57.4207 2.72987 56.7015 2.72987C55.2393 2.72987 54.0999 3.22836 53.2857 4.22058C52.4715 5.21517 52.0632 6.61093 52.0632 8.40784C52.0632 10.2048 52.5023 11.4842 53.383 12.5168C54.2613 13.5493 55.4149 14.0668 56.8391 14.0668C57.3519 14.0787 57.8432 14.036 58.3108 13.9315C58.7785 13.8294 59.1939 13.6752 59.5523 13.4686L59.5333 9.73476C58.8141 9.72289 58.102 9.69915 57.397 9.66829C56.692 9.63744 55.9727 9.60183 55.2416 9.56148V8.75203C56.025 8.74016 56.9127 8.73067 57.9073 8.72355C58.9019 8.71643 60.3356 8.71405 62.2085 8.71405L62.1705 15.1231C62.1705 15.1872 62.1587 15.2394 62.1325 15.2774C62.1064 15.3154 62.0685 15.3415 62.0162 15.3534C61.9521 15.3534 61.8975 15.3463 61.8524 15.3344C61.8073 15.3225 61.7599 15.2964 61.7076 15.2584L59.7636 13.9505C59.2247 14.3991 58.5743 14.76 57.81 15.0282C57.0457 15.2988 56.26 15.4317 55.4529 15.4317V15.4365Z" fill="#181818"/>
<path id="Vector_3" d="M65.5337 15.2251C65.123 15.2251 64.8239 15.2275 64.6388 15.2346C64.4536 15.2417 64.3017 15.2441 64.1854 15.2441V14.4347C64.7242 14.4608 65.0613 14.4133 65.1966 14.2899C65.3319 14.1688 65.3984 13.8768 65.3984 13.414V4.38666C65.3984 3.47515 65.3224 2.89833 65.1681 2.65383C65.0138 2.40934 64.6103 2.30015 63.9551 2.32626V1.67111C64.4038 1.54293 64.9426 1.30555 65.5716 0.958988C66.2007 0.612423 66.9009 0.332323 67.2855 0L67.8053 0.187525V13.5279C67.8053 13.9386 67.8694 14.1997 67.9976 14.3065C68.1258 14.4157 68.4913 14.4584 69.0943 14.4323V15.2417C68.9661 15.2417 68.7691 15.2394 68.5079 15.2322C68.2445 15.2251 67.8124 15.2228 67.2095 15.2228C66.8511 15.2109 66.609 15.2038 66.4879 15.2038H66.0464C65.9491 15.2038 65.7805 15.2109 65.536 15.2228L65.5337 15.2251Z" fill="#181818"/>
<path id="Vector_4" d="M80.3294 10.2593C80.3294 11.7097 79.8452 12.9322 78.8767 13.9267C77.9082 14.9213 76.6739 15.4198 75.1713 15.4198C73.5928 15.4198 72.3419 14.9878 71.4185 14.1214C70.4951 13.255 70.0322 12.0705 70.0322 10.5703C70.0322 9.07009 70.5402 7.86898 71.5538 6.85539C72.5674 5.84181 73.8254 5.33383 75.3256 5.33383C76.8258 5.33383 77.9889 5.80146 78.9242 6.73908C79.8618 7.67671 80.3294 8.84933 80.3294 10.2617V10.2593ZM72.9567 10.2783C72.9567 11.7666 73.1394 12.8538 73.505 13.5422C73.8705 14.2282 74.445 14.5724 75.2283 14.5724C76.0116 14.5724 76.541 14.2377 76.8923 13.5707C77.246 12.9037 77.4216 11.8711 77.4216 10.4706C77.4216 8.99413 77.2412 7.90458 76.8828 7.19721C76.5244 6.49221 75.9642 6.13853 75.2093 6.13853C74.4141 6.13853 73.8397 6.45898 73.486 7.09989C73.1323 7.7408 72.9567 8.79948 72.9567 10.2759V10.2783Z" fill="#181818"/>
<path id="Vector_5" d="M89.1009 11.8944C89.1009 12.9341 88.7425 13.7839 88.0232 14.4438C87.304 15.1061 86.3616 15.436 85.1937 15.436C84.6169 15.436 84.1256 15.4076 83.722 15.3506C83.3185 15.2936 82.8129 15.1417 82.21 14.8972C82.1577 14.8711 82.1245 14.8402 82.1032 14.7999C82.0842 14.7619 82.0747 14.6978 82.0747 14.6076V14.5008C82.0747 14.4557 82.0818 14.3702 82.0937 14.2397C82.1198 13.8433 82.134 13.4658 82.1411 13.1145C82.1483 12.7608 82.1506 12.381 82.1506 11.968H82.6135C82.896 12.8036 83.3019 13.4374 83.836 13.8741C84.3677 14.3109 85.0062 14.5293 85.7516 14.5293C86.2382 14.5293 86.6203 14.413 86.8957 14.1827C87.1711 13.9525 87.3087 13.6367 87.3087 13.2403C87.3087 12.8439 87.1616 12.5377 86.8672 12.2885C86.5729 12.0392 85.9248 11.7591 84.9231 11.4505C84.3321 11.2701 83.8953 11.123 83.6152 11.009C83.3327 10.8927 83.0882 10.7717 82.8841 10.6435C82.5494 10.4132 82.3002 10.1474 82.134 9.84352C81.9679 9.54206 81.8848 9.19312 81.8848 8.79433C81.8848 7.78075 82.2622 6.94994 83.0194 6.30191C83.7766 5.65388 84.719 5.33105 85.8489 5.33105C86.3236 5.33105 86.7818 5.36429 87.2256 5.42838C87.6672 5.49247 88.1395 5.60166 88.6404 5.75595C88.6926 5.76782 88.7258 5.78918 88.7472 5.81292C88.7662 5.83903 88.7757 5.86989 88.7757 5.91025C88.7757 6.02656 88.7733 6.18322 88.7662 6.38262C88.7591 6.58201 88.7496 6.92383 88.7377 7.41282C88.7258 7.73327 88.7163 7.96827 88.7092 8.11544C88.7021 8.26261 88.6997 8.38842 88.6997 8.49049H88.2582C87.9757 7.77125 87.5746 7.22292 87.0547 6.8455C86.5349 6.46807 85.9154 6.27817 85.1961 6.27817C84.6953 6.27817 84.3083 6.38024 84.0306 6.58676C83.7553 6.79327 83.6176 7.0805 83.6176 7.45317C83.6176 7.77363 83.7529 8.04423 84.0211 8.26261C84.2893 8.481 84.8946 8.72549 85.8299 8.99372C86.4708 9.17413 86.9432 9.32842 87.2446 9.4566C87.5461 9.58478 87.812 9.72009 88.0446 9.86014C88.403 10.1165 88.6712 10.4132 88.8445 10.7455C89.0178 11.0802 89.1056 11.4648 89.1056 11.9015L89.1009 11.8944Z" fill="#181818"/>
<path id="Vector_6" d="M98.0423 11.8947C98.0423 12.9344 97.6839 13.7842 96.9646 14.4441C96.2454 15.1064 95.303 15.4363 94.1351 15.4363C93.5583 15.4363 93.067 15.4078 92.6634 15.3509C92.2599 15.2939 91.7543 15.142 91.1514 14.8975C91.0991 14.8714 91.0659 14.8405 91.0446 14.8001C91.0256 14.7622 91.0161 14.6981 91.0161 14.6079V14.5011C91.0161 14.456 91.0232 14.3705 91.0351 14.2399C91.0612 13.8435 91.0754 13.4661 91.0825 13.1148C91.0897 12.7611 91.092 12.3813 91.092 11.9683H91.5549C91.8374 12.8038 92.2433 13.4376 92.7774 13.8744C93.3091 14.3112 93.9476 14.5295 94.693 14.5295C95.1796 14.5295 95.5617 14.4132 95.8371 14.183C96.1125 13.9527 96.2501 13.637 96.2501 13.2406C96.2501 12.8442 96.103 12.538 95.8086 12.2887C95.5143 12.0395 94.8662 11.7594 93.8645 11.4508C93.2735 11.2704 92.8367 11.1232 92.5566 11.0093C92.2741 10.893 92.0296 10.7719 91.8255 10.6437C91.4908 10.4135 91.2416 10.1476 91.0754 9.84379C90.9092 9.54233 90.8262 9.19339 90.8262 8.79461C90.8262 7.78102 91.2036 6.95022 91.9608 6.30219C92.718 5.65416 93.6604 5.33133 94.7903 5.33133C95.265 5.33133 95.7232 5.36456 96.1671 5.42865C96.6086 5.49274 97.0809 5.60193 97.5818 5.75623C97.634 5.7681 97.6672 5.78946 97.6886 5.8132C97.7076 5.83931 97.7171 5.87017 97.7171 5.91052C97.7171 6.02683 97.7147 6.1835 97.7076 6.38289C97.7005 6.58229 97.691 6.9241 97.6791 7.41309C97.6672 7.73355 97.6578 7.96855 97.6506 8.11572C97.6435 8.26289 97.6411 8.3887 97.6411 8.49077H97.1996C96.9172 7.77153 96.516 7.22319 95.9961 6.84577C95.4763 6.46835 94.8568 6.27845 94.1375 6.27845C93.6367 6.27845 93.2497 6.38052 92.972 6.58703C92.6967 6.79355 92.559 7.08077 92.559 7.45345C92.559 7.7739 92.6943 8.04451 92.9625 8.26289C93.2308 8.48127 93.8361 8.72577 94.7713 8.994C95.4122 9.1744 95.8846 9.3287 96.186 9.45688C96.4875 9.58506 96.7534 9.72036 96.986 9.86041C97.3444 10.1168 97.6127 10.4135 97.7859 10.7458C97.9592 11.0805 98.047 11.4651 98.047 11.9018L98.0423 11.8947Z" fill="#181818"/>
<path id="Vector_7" d="M102.042 15.4362C101.348 15.4362 100.793 15.2534 100.378 14.8879C99.9622 14.5223 99.7509 14.0452 99.7509 13.4542C99.7509 12.6447 100.1 11.9682 100.8 11.4222C101.5 10.8763 102.645 10.3541 104.237 9.85321L105.488 9.46866V9.19806C105.488 8.04205 105.367 7.23498 105.123 6.7721C104.878 6.30922 104.456 6.07897 103.853 6.07897C103.3 6.07897 102.903 6.23326 102.659 6.54185C102.414 6.85043 102.293 7.34417 102.293 8.02306V8.31265C102.293 8.63311 102.132 8.90846 101.811 9.14109C101.491 9.37134 101.118 9.48765 100.696 9.48765C100.401 9.48765 100.157 9.40694 99.9646 9.2479C99.7723 9.08649 99.675 8.88472 99.675 8.6426C99.675 8.23195 99.815 7.80942 100.098 7.37265C100.38 6.93589 100.765 6.55134 101.254 6.21665C101.65 5.94604 102.091 5.7419 102.571 5.59948C103.053 5.45943 103.556 5.38821 104.083 5.38821C105.341 5.38821 106.298 5.67306 106.95 6.24513C107.606 6.8172 107.933 7.64089 107.933 8.71856C107.933 8.91083 107.931 9.14821 107.924 9.43068C107.917 9.71316 107.9 10.1547 107.876 10.76C107.85 11.3249 107.833 11.7285 107.829 11.9729C107.822 12.2174 107.819 12.4216 107.819 12.5901C107.819 12.9889 107.871 13.2738 107.974 13.447C108.076 13.6203 108.237 13.7058 108.455 13.7058C108.595 13.7058 108.754 13.6417 108.928 13.5135C109.101 13.3853 109.315 13.1741 109.573 12.8773L109.958 13.1859C109.445 13.917 108.937 14.4701 108.436 14.8404C107.936 15.2131 107.454 15.3982 106.993 15.3982C106.48 15.3982 106.089 15.2368 105.818 14.9164C105.548 14.5959 105.415 14.1212 105.415 13.4921V13.1266C104.992 13.8957 104.496 14.4749 103.931 14.8594C103.366 15.244 102.737 15.4362 102.044 15.4362H102.042ZM102.177 12.5877C102.177 12.9604 102.303 13.2548 102.552 13.4731C102.801 13.6915 103.145 13.8007 103.582 13.8007C103.865 13.8007 104.157 13.72 104.458 13.561C104.76 13.3996 105.078 13.1527 105.41 12.8204C105.436 12.0513 105.455 11.4341 105.467 10.9712C105.479 10.5084 105.486 10.2069 105.486 10.0668L104.484 10.4514C103.689 10.76 103.105 11.0804 102.732 11.4127C102.36 11.7474 102.175 12.1367 102.175 12.5877H102.177Z" fill="#181818"/>
<path id="Vector_8" d="M111.909 15.2253C111.499 15.2372 111.197 15.2443 111.005 15.2443H110.542V14.4349C111.093 14.4349 111.449 14.3684 111.61 14.2331C111.772 14.0978 111.85 13.8011 111.85 13.3382V8.52664C111.85 8.36048 111.75 8.16109 111.551 7.93084C111.351 7.70058 111.01 7.392 110.521 7.00745C110.494 6.98134 110.483 6.95998 110.483 6.94099C110.483 6.922 110.494 6.90538 110.521 6.89351C110.637 6.82942 111.002 6.58255 111.617 6.15291C112.234 5.72326 112.579 5.46927 112.657 5.39331C112.683 5.3672 112.702 5.35771 112.714 5.36483C112.726 5.37195 112.745 5.38857 112.771 5.4123C113.182 5.77074 113.509 6.1624 113.754 6.5873C113.998 7.00983 114.145 7.46084 114.195 7.93558V7.95457C114.233 7.51781 114.326 7.12377 114.475 6.77008C114.622 6.41639 114.819 6.11256 115.062 5.85619C115.292 5.63781 115.555 5.47877 115.85 5.37432C116.144 5.27225 116.498 5.22003 116.908 5.22003C117.191 5.22003 117.435 5.24852 117.639 5.30786C117.844 5.36483 117.979 5.44554 118.043 5.54761V5.73988C118.031 5.95826 117.986 6.18614 117.908 6.42351C117.832 6.66089 117.734 6.8769 117.618 7.06917C117.502 7.28755 117.347 7.44422 117.155 7.54154C116.963 7.63887 116.699 7.68634 116.365 7.68634H115.845C115.638 7.67447 115.498 7.66735 115.422 7.66735H115.23C115.05 7.66735 114.9 7.69109 114.777 7.73381C114.656 7.77892 114.556 7.84538 114.478 7.93558C114.387 8.05189 114.326 8.18957 114.295 8.34861C114.262 8.51003 114.247 8.71654 114.247 8.97528V14.442H116.538V15.2514H115.854C115.515 15.2514 114.921 15.2443 114.074 15.2324C113.535 15.2206 113.179 15.2134 113.006 15.2134H112.467C112.37 15.2134 112.182 15.2206 111.9 15.2324L111.909 15.2253Z" fill="#181818"/>
<path id="Vector_9" d="M123.572 18.7666C123.277 19.2674 122.988 19.6258 122.705 19.8442C122.423 20.0626 122.095 20.1718 121.723 20.1718C121.35 20.1718 121.03 20.0626 120.799 19.8442C120.569 19.6258 120.453 19.3434 120.453 18.9968C120.453 18.6502 120.564 18.3417 120.79 18.0734C121.015 17.8028 121.421 17.5085 122.012 17.188C122.589 16.8937 123.033 16.6231 123.342 16.3786C123.65 16.1341 123.944 15.8208 124.227 15.4362C124.239 15.4243 124.248 15.4101 124.255 15.3982C124.263 15.3864 124.272 15.3721 124.284 15.3602H124.265C124.058 15.3602 123.89 15.3033 123.755 15.187C123.619 15.0707 123.501 14.8855 123.399 14.6291L120.837 8.14173C120.543 7.38451 120.291 6.88839 120.087 6.64865C119.881 6.41127 119.541 6.29259 119.066 6.29259V5.5235H120.222C120.671 5.53537 120.996 5.54249 121.196 5.54249H123.014C123.463 5.53062 123.797 5.5235 124.016 5.5235H124.574V6.29259C124.02 6.28072 123.634 6.3187 123.408 6.4089C123.183 6.4991 123.071 6.66526 123.071 6.90976C123.071 7.02607 123.088 7.14713 123.118 7.27531C123.152 7.40349 123.206 7.57678 123.282 7.79516L125.15 12.704L126.805 8.43132C126.907 8.17496 126.985 7.94708 127.035 7.74769C127.087 7.54829 127.111 7.36551 127.111 7.19935C127.111 6.86466 126.999 6.62728 126.774 6.48723C126.548 6.34718 126.192 6.28309 125.706 6.29496V5.52587H126.235C126.435 5.52587 126.726 5.53299 127.111 5.54486H128.806C129.1 5.53299 129.319 5.52587 129.461 5.52587H129.846V6.29496C129.435 6.28309 129.1 6.43026 128.844 6.73885C128.587 7.04743 128.26 7.66935 127.861 8.60698L124.78 15.8445C124.754 15.9204 124.597 16.3382 124.308 17.0954C124.018 17.8527 123.771 18.4105 123.567 18.7689L123.572 18.7666Z" fill="#181818"/>
<path id="Vector_10" d="M50.6349 35.758C50.3405 35.7698 50.1221 35.777 49.9797 35.777H49.5762V34.9485C50.3073 34.9485 50.7535 34.8559 50.915 34.6684C51.0764 34.4833 51.1689 33.9017 51.195 32.9261C51.2069 32.1689 51.2212 31.3476 51.233 30.4622C51.2449 29.5768 51.252 28.8006 51.252 28.1335C51.2378 27.9531 51.233 27.6232 51.233 27.1413V24.7438C51.233 24.0507 51.1523 23.6306 50.9933 23.4834C50.8319 23.3362 50.3619 23.2626 49.5785 23.2626V22.4342C49.6426 22.4342 49.7732 22.4366 49.9726 22.4437C50.172 22.4508 50.547 22.4603 51.0977 22.4722C51.5725 22.4722 51.8929 22.4746 52.0591 22.4817C52.2252 22.4888 52.3344 22.4912 52.3867 22.4912C52.7712 22.4912 53.3267 22.4888 54.0506 22.4817C54.7746 22.4746 55.933 22.4651 57.5258 22.4532C58.3589 22.4413 58.9144 22.4342 59.1898 22.4342H59.7381C59.9042 22.4342 60.0752 22.4366 60.2484 22.4437C60.4217 22.4508 60.5475 22.4603 60.6235 22.4722L60.8537 26.631H60.0063L59.9873 26.3817C59.8591 25.342 59.4888 24.5682 58.8812 24.0626C58.2711 23.5546 57.4142 23.303 56.3104 23.303H55.0405C54.5016 23.303 54.148 23.3956 53.9818 23.5831C53.8156 23.7682 53.7326 24.1694 53.7326 24.7866V28.4825L54.3877 28.4635C55.2731 28.4255 55.933 28.238 56.3698 27.9057C56.8065 27.571 57.0819 27.0274 57.1982 26.2702H57.8913C57.8913 26.3865 57.889 26.5336 57.8818 26.714C57.8747 26.8944 57.8605 27.1817 57.8344 27.5805C57.8225 27.9792 57.813 28.2522 57.8059 28.3994C57.7988 28.5466 57.7964 28.6463 57.7964 28.6985C57.7964 28.7507 57.7988 28.8623 57.8059 29.0356C57.813 29.2088 57.8225 29.534 57.8344 30.0088C57.8462 30.3933 57.8557 30.6758 57.8628 30.8562C57.87 31.0366 57.8723 31.1838 57.8723 31.2977H57.1412C57.0653 30.5025 56.816 29.9471 56.4006 29.6337C55.9829 29.3204 55.2945 29.1566 54.3307 29.1424L53.7349 29.1234V32.0288C53.7349 32.684 53.7159 33.2489 53.678 33.7237C53.64 34.1984 53.5878 34.5592 53.5237 34.8014C53.7943 34.8132 54.1693 34.8251 54.6488 34.8298C55.1307 34.837 55.8001 34.8393 56.6594 34.8393C57.737 34.8512 58.556 34.5782 59.1138 34.0204C59.6716 33.4626 60.0206 32.5677 60.163 31.3357L60.201 31.0461H61.0484L60.8181 35.7034C60.792 35.7295 60.5475 35.7485 60.087 35.7603C59.6241 35.7722 58.6106 35.7793 57.0463 35.7793C56.6475 35.7793 56.2273 35.777 55.7858 35.7698C55.3443 35.7627 54.7177 35.7532 53.9082 35.7414C53.3551 35.7295 52.9611 35.7224 52.7237 35.7224H52.0971C51.8906 35.7224 51.6864 35.7247 51.4799 35.7319C51.2734 35.739 50.9909 35.7485 50.6325 35.7603L50.6349 35.758Z" fill="#181818"/>
<path id="Vector_11" d="M67.414 35.9692C66.0396 35.9692 64.943 35.5561 64.1217 34.7277C63.3004 33.8993 62.8897 32.8192 62.8897 31.4852C62.8897 29.9826 63.4452 28.6723 64.5537 27.5495C65.6646 26.4268 66.9891 25.8642 68.5297 25.8642C69.5053 25.8642 70.2981 26.0541 70.9081 26.4315C71.5182 26.8113 71.822 27.2813 71.822 27.8463C71.822 28.2189 71.6701 28.5513 71.3687 28.848C71.0672 29.1423 70.7182 29.2919 70.3195 29.2919C69.9729 29.2919 69.6904 29.2088 69.472 29.0426C69.2537 28.8765 69.0495 28.5299 68.8549 28.0029C68.6626 27.5021 68.4703 27.1745 68.2781 27.0202C68.0858 26.8659 67.8366 26.79 67.528 26.79C66.8728 26.79 66.3411 27.0985 65.9304 27.7133C65.5198 28.3305 65.3133 29.1376 65.3133 30.1393C65.3133 31.2953 65.6124 32.2116 66.2082 32.8928C66.804 33.5741 67.5968 33.9135 68.5866 33.9135C69.2679 33.9135 69.8495 33.764 70.3385 33.4601C70.8251 33.1587 71.3212 32.6222 71.8197 31.8531L72.1852 32.0264C71.8648 33.2845 71.2903 34.2553 70.4619 34.9437C69.6335 35.6297 68.6175 35.9739 67.4117 35.9739L67.414 35.9692Z" fill="#181818"/>
<path id="Vector_12" d="M83.7337 30.7921C83.7337 32.2425 83.2495 33.465 82.281 34.4596C81.3125 35.4541 80.0782 35.9526 78.5756 35.9526C76.9971 35.9526 75.7462 35.5206 74.8228 34.6542C73.8994 33.7878 73.4365 32.6033 73.4365 31.1031C73.4365 29.6029 73.9445 28.4018 74.9581 27.3882C75.9717 26.3746 77.2297 25.8666 78.7299 25.8666C80.2301 25.8666 81.3932 26.3343 82.3285 27.2719C83.2661 28.2095 83.7337 29.3821 83.7337 30.7945V30.7921ZM76.361 30.8111C76.361 32.2995 76.5437 33.3866 76.9093 34.075C77.2748 34.761 77.8493 35.1052 78.6326 35.1052C79.4159 35.1052 79.9453 34.7705 80.2966 34.1035C80.6503 33.4365 80.8259 32.4039 80.8259 31.0034C80.8259 29.5269 80.6455 28.4374 80.2871 27.73C79.9287 27.025 79.3685 26.6713 78.6136 26.6713C77.8184 26.6713 77.244 26.9918 76.8903 27.6327C76.5366 28.2736 76.361 29.3323 76.361 30.8087V30.8111Z" fill="#181818"/>
<path id="Vector_13" d="M91.3269 35.7579C90.8782 35.7579 90.5602 35.7603 90.375 35.7674C90.1899 35.7746 90.0379 35.7769 89.9216 35.7769V34.9485C90.705 34.9485 91.1726 34.8583 91.3269 34.6779C91.4812 34.4975 91.5642 33.9135 91.5761 32.9261C91.588 32.157 91.5927 30.6615 91.5856 28.4397C91.5785 26.2203 91.5761 24.9883 91.5761 24.7438C91.5761 24.0507 91.4954 23.6305 91.3364 23.4834C91.175 23.3362 90.705 23.2626 89.9216 23.2626V22.4342C89.9857 22.4342 90.1163 22.4365 90.3157 22.4437C90.5151 22.4508 90.8901 22.4603 91.4408 22.4722C91.9156 22.4722 92.236 22.4745 92.4022 22.4816C92.5683 22.4888 92.6775 22.4911 92.7297 22.4911C93.1143 22.4911 93.6697 22.4888 94.3937 22.4816C95.1177 22.4745 96.2761 22.465 97.8689 22.4532C98.702 22.4413 99.2575 22.4342 99.5328 22.4342H100.081C100.247 22.4342 100.418 22.4365 100.592 22.4437C100.765 22.4508 100.891 22.4603 100.967 22.4722L101.237 27.3241H100.409L100.39 27.0748C100.183 25.7028 99.7963 24.7296 99.2243 24.1575C98.6522 23.5854 97.7976 23.3006 96.6535 23.3006H95.3242C94.8352 23.3006 94.5053 23.3623 94.332 23.4834C94.1587 23.6044 94.0733 23.8584 94.0733 24.243V29.1518L94.8044 29.1328C95.742 29.0949 96.4233 28.9073 96.8553 28.575C97.2849 28.2403 97.5389 27.6825 97.6149 26.9015H98.346C98.346 27.0297 98.3436 27.1911 98.3365 27.3834C98.3294 27.5757 98.3127 27.8771 98.289 28.2878C98.2748 28.6866 98.2653 28.9548 98.2605 29.0972C98.2534 29.2397 98.251 29.3417 98.251 29.4058C98.251 29.4699 98.2534 29.5886 98.2605 29.7619C98.2676 29.9352 98.2771 30.2722 98.289 30.7731C98.3009 31.1719 98.3104 31.4591 98.3175 31.6395C98.3246 31.8199 98.327 31.9671 98.327 32.0834H97.5959C97.5175 31.236 97.2778 30.6568 96.8743 30.3411C96.4707 30.0277 95.7729 29.864 94.7854 29.8497L94.0733 29.8307V32.5439C94.0733 33.3391 94.1018 33.8637 94.1587 34.1129C94.2157 34.3622 94.3154 34.5521 94.4578 34.6803C94.5979 34.7823 94.8044 34.8535 95.0726 34.8915C95.3432 34.9295 95.8678 34.9485 96.6511 34.9485H96.9004V35.7769H96.6511C96.523 35.7769 96.288 35.7746 95.9485 35.7674C95.6091 35.7603 95.0275 35.7508 94.2062 35.7389C93.6792 35.7271 93.3327 35.72 93.1665 35.72H92.8389C92.7108 35.72 92.5446 35.7223 92.3381 35.7294C92.1316 35.7366 91.7921 35.7461 91.3174 35.7579H91.3269Z" fill="#181818"/>
<path id="Vector_14" d="M112.275 30.7922C112.275 32.2425 111.791 33.465 110.822 34.4596C109.854 35.4542 108.619 35.9527 107.117 35.9527C105.538 35.9527 104.287 35.5207 103.364 34.6543C102.44 33.7878 101.978 32.6034 101.978 31.1032C101.978 29.603 102.486 28.4018 103.499 27.3883C104.513 26.3747 105.771 25.8667 107.271 25.8667C108.771 25.8667 109.934 26.3343 110.87 27.2719C111.807 28.2096 112.275 29.3822 112.275 30.7946V30.7922ZM104.902 30.8112C104.902 32.2995 105.085 33.3867 105.45 34.0751C105.816 34.7611 106.39 35.1053 107.174 35.1053C107.957 35.1053 108.486 34.7706 108.838 34.1036C109.191 33.4365 109.367 32.404 109.367 31.0035C109.367 29.527 109.187 28.4375 108.828 27.7301C108.47 27.0251 107.909 26.6714 107.155 26.6714C106.359 26.6714 105.785 26.9918 105.431 27.6328C105.078 28.2737 104.902 29.3323 104.902 30.8088V30.8112Z" fill="#181818"/>
<path id="Vector_15" d="M117.303 35.9694C116.353 35.9694 115.667 35.6846 115.242 35.1125C114.82 34.5404 114.606 33.6147 114.606 32.3305V29.9425C114.606 29.0832 114.54 28.5373 114.404 28.307C114.269 28.0768 113.901 27.9723 113.298 27.9984V27.3433C113.709 27.2151 114.176 27.0062 114.703 26.7166C115.23 26.427 115.691 26.1232 116.09 25.8027L116.956 26.0733V31.597C116.956 32.5465 117.11 33.2396 117.419 33.6764C117.727 34.1132 118.209 34.3316 118.862 34.3316C119.235 34.3316 119.55 34.2865 119.814 34.1963C120.077 34.1061 120.336 33.947 120.593 33.7144V29.9425C120.593 29.5841 120.583 29.2921 120.564 29.0666C120.545 28.8435 120.517 28.6655 120.479 28.5373C120.415 28.3189 120.312 28.1717 120.17 28.0958C120.028 28.0198 119.752 27.9866 119.342 27.9984V27.3433C119.738 27.2151 120.199 27.0062 120.718 26.7166C121.238 26.427 121.692 26.1232 122.076 25.8027L122.981 26.0733V34.4265C122.981 34.633 123 34.7659 123.037 34.83C123.075 34.8941 123.154 34.9321 123.268 34.9464L124.191 34.9843V35.7154L120.65 35.9457C120.597 35.9457 120.562 35.9338 120.543 35.9077C120.524 35.8816 120.514 35.8436 120.514 35.7914L120.59 34.0206C120.089 34.6757 119.567 35.1624 119.021 35.4828C118.475 35.8033 117.901 35.9647 117.298 35.9647L117.303 35.9694Z" fill="#181818"/>
<path id="Vector_16" d="M126.874 35.758C126.463 35.7699 126.169 35.777 125.988 35.777H125.547V34.9675C126.074 34.9675 126.415 34.8963 126.577 34.7563C126.738 34.6162 126.817 34.3195 126.817 33.8709V29.0593C126.817 28.8931 126.715 28.6866 126.508 28.4445C126.302 28.2 125.962 27.8986 125.487 27.5401C125.461 27.5283 125.449 27.5093 125.449 27.4831C125.449 27.457 125.461 27.438 125.487 27.4262C125.616 27.3502 125.998 27.0962 126.631 26.6666C127.268 26.2369 127.624 25.9901 127.7 25.926C127.726 25.926 127.747 25.9284 127.766 25.9355C127.785 25.9426 127.806 25.945 127.833 25.945C128.231 26.3176 128.542 26.669 128.765 27.0037C128.991 27.3384 129.133 27.6446 129.197 27.927C129.66 27.26 130.18 26.7497 130.757 26.396C131.334 26.0423 131.937 25.8666 132.566 25.8666C133.541 25.8666 134.261 26.161 134.721 26.752C135.184 27.3431 135.414 28.2594 135.414 29.5056V33.9326C135.414 34.4334 135.478 34.7349 135.607 34.837C135.735 34.939 136.062 34.9841 136.587 34.9723V35.7817H136.077C135.839 35.7817 135.431 35.7746 134.854 35.7627C134.455 35.7509 134.187 35.7437 134.045 35.7437H133.563C133.473 35.7437 133.306 35.7509 133.062 35.7627C132.677 35.7627 132.392 35.7651 132.205 35.7722C132.02 35.7793 131.868 35.7817 131.752 35.7817V34.9723C132.381 34.9723 132.749 34.9201 132.858 34.818C132.967 34.7159 133.022 34.4145 133.022 33.9136V30.2367C133.022 29.2991 132.867 28.6178 132.559 28.1858C132.25 27.7561 131.763 27.5401 131.096 27.5401C130.724 27.5401 130.391 27.5923 130.095 27.6944C129.8 27.7965 129.504 27.9698 129.209 28.2143V34.9699H130.441V35.7793H129.893C129.644 35.7793 129.228 35.7722 128.651 35.7604C128.279 35.7485 128.03 35.7414 127.901 35.7414H127.41C127.313 35.7414 127.13 35.7485 126.862 35.7604L126.874 35.758Z" fill="#181818"/>
<path id="Vector_17" d="M141.118 35.9691C140.041 35.9691 139.184 35.587 138.548 34.8226C137.911 34.0583 137.596 33.0494 137.596 31.7914C137.596 30.0847 138.106 28.6699 139.127 27.5471C140.147 26.4244 141.408 25.8618 142.911 25.8618C143.193 25.8618 143.459 25.8855 143.71 25.9282C143.96 25.9733 144.188 26.0398 144.394 26.13V24.917C144.394 23.9937 144.32 23.4121 144.173 23.1747C144.026 22.9373 143.637 22.8305 143.008 22.8566V22.2015C143.43 22.0733 143.945 21.8383 144.548 21.4989C145.151 21.1594 145.652 20.8152 146.051 20.4687L146.782 20.7179V34.2126C146.782 34.5069 146.808 34.7016 146.858 34.7894C146.91 34.8796 147.005 34.9318 147.148 34.9437L148.052 34.9817V35.7318C147.758 35.7318 147.39 35.7484 146.955 35.7792C146.519 35.8101 145.935 35.8718 145.204 35.962C145.023 35.9739 144.904 35.9834 144.847 35.9905C144.791 35.9976 144.755 36 144.741 36C144.639 36 144.546 35.9573 144.461 35.8742C144.377 35.7911 144.342 35.6985 144.354 35.5941L144.392 33.8233C143.917 34.5425 143.409 35.079 142.87 35.4303C142.331 35.784 141.747 35.9596 141.118 35.9596V35.9691ZM142.448 26.8255C141.702 26.8255 141.154 27.1507 140.803 27.7987C140.449 28.4468 140.273 29.4509 140.273 30.811C140.273 31.9267 140.477 32.7812 140.888 33.3723C141.299 33.9633 141.89 34.2577 142.659 34.2577C142.994 34.2577 143.29 34.2007 143.554 34.0844C143.817 33.9681 144.095 33.7639 144.392 33.4696V28.8313C144.264 28.1002 144.055 27.5827 143.765 27.2813C143.475 26.9798 143.036 26.8279 142.448 26.8279V26.8255Z" fill="#181818"/>
<path id="Vector_18" d="M151.674 35.9689C150.981 35.9689 150.426 35.7861 150.01 35.4206C149.595 35.055 149.384 34.5779 149.384 33.9868C149.384 33.1774 149.733 32.5009 150.433 31.9549C151.133 31.409 152.277 30.8867 153.87 30.3859L155.121 30.0013V29.7307C155.121 28.5747 155 27.7677 154.755 27.3048C154.511 26.8419 154.088 26.6117 153.485 26.6117C152.932 26.6117 152.536 26.7659 152.291 27.0745C152.047 27.3831 151.926 27.8769 151.926 28.5557V28.8453C151.926 29.1658 151.764 29.4411 151.444 29.6738C151.124 29.904 150.751 30.0203 150.328 30.0203C150.034 30.0203 149.789 29.9396 149.597 29.7806C149.405 29.6192 149.308 29.4174 149.308 29.1753C149.308 28.7646 149.448 28.3421 149.73 27.9053C150.013 27.4686 150.397 27.084 150.886 26.7493C151.283 26.4787 151.724 26.2746 152.204 26.1322C152.685 25.9921 153.189 25.9209 153.716 25.9209C154.974 25.9209 155.93 26.2057 156.583 26.7778C157.238 27.3499 157.566 28.1736 157.566 29.2512C157.566 29.4435 157.563 29.6809 157.556 29.9634C157.549 30.2458 157.533 30.6874 157.509 31.2927C157.483 31.8576 157.466 32.2611 157.461 32.5056C157.454 32.7501 157.452 32.9543 157.452 33.1228C157.452 33.5216 157.504 33.8064 157.606 33.9797C157.708 34.153 157.87 34.2385 158.088 34.2385C158.228 34.2385 158.387 34.1744 158.56 34.0462C158.734 33.918 158.947 33.7067 159.206 33.41L159.591 33.7186C159.078 34.4497 158.57 35.0028 158.069 35.3731C157.568 35.7458 157.086 35.9309 156.626 35.9309C156.113 35.9309 155.721 35.7695 155.451 35.4491C155.18 35.1286 155.047 34.6539 155.047 34.0248V33.6593C154.625 34.4284 154.129 35.0075 153.564 35.3921C152.999 35.7766 152.37 35.9689 151.677 35.9689H151.674ZM151.81 33.1204C151.81 33.4931 151.935 33.7874 152.185 34.0058C152.434 34.2242 152.778 34.3334 153.215 34.3334C153.497 34.3334 153.789 34.2527 154.091 34.0937C154.392 33.9322 154.71 33.6854 155.043 33.3531C155.069 32.584 155.088 31.9668 155.1 31.5039C155.111 31.041 155.118 30.7396 155.118 30.5995L154.117 30.9841C153.322 31.2927 152.738 31.6131 152.365 31.9454C151.992 32.2801 151.807 32.6694 151.807 33.1204H151.81Z" fill="#181818"/>
<path id="Vector_19" d="M163.273 35.9693C162.527 35.9693 161.967 35.7343 161.587 35.2666C161.21 34.799 161.02 34.1011 161.02 33.1777C161.02 32.9736 161.029 32.6555 161.048 32.2259C161.067 31.7962 161.096 31.2479 161.134 30.5809L161.307 27.4998H159.287V26.9609L162.772 23.5356H163.408V26.0565H166.43C166.494 26.0565 166.532 26.0589 166.546 26.066C166.558 26.0732 166.565 26.0827 166.565 26.0945L166.142 27.4998H163.389V30.9061C163.389 31.5731 163.401 32.1001 163.427 32.4846C163.453 32.8692 163.498 33.1659 163.562 33.37C163.652 33.6525 163.79 33.8709 163.975 34.0252C164.16 34.1795 164.384 34.2554 164.64 34.2554C164.896 34.2554 165.148 34.1723 165.39 34.0062C165.634 33.84 165.903 33.5504 166.199 33.1398L166.662 33.4673C166.161 34.3005 165.63 34.9272 165.065 35.345C164.5 35.7627 163.904 35.9716 163.275 35.9716L163.273 35.9693Z" fill="#181818"/>
<path id="Vector_20" d="M168.684 35.758C168.274 35.7699 167.974 35.777 167.789 35.777H167.336V34.9676C167.875 34.9794 168.221 34.9296 168.376 34.8133C168.53 34.6969 168.606 34.4097 168.606 33.9468V29.9424C168.606 29.0831 168.539 28.5371 168.404 28.3069C168.269 28.0766 167.932 27.9722 167.393 27.9983V27.3431C167.789 27.2149 168.245 27.006 168.76 26.7165C169.273 26.4269 169.729 26.123 170.127 25.8026L171.032 26.0732V34.0038C171.032 34.4525 171.098 34.7326 171.234 34.8417C171.369 34.9509 171.725 34.9937 172.302 34.9676V35.777H171.753C171.504 35.777 171.077 35.7699 170.474 35.758C170.089 35.7461 169.828 35.739 169.695 35.739H169.233C169.135 35.739 168.952 35.7461 168.684 35.758ZM171.359 23.0348C171.359 23.5095 171.205 23.8988 170.897 24.2003C170.588 24.5018 170.192 24.6537 169.703 24.6537C169.214 24.6537 168.801 24.5065 168.499 24.2098C168.198 23.9155 168.046 23.5238 168.046 23.0348C168.046 22.5458 168.202 22.1494 168.518 21.8408C168.831 21.5322 169.233 21.3779 169.722 21.3779C170.211 21.3779 170.605 21.5322 170.906 21.8408C171.207 22.1494 171.359 22.5458 171.359 23.0348Z" fill="#181818"/>
<path id="Vector_21" d="M183.539 30.7921C183.539 32.2425 183.055 33.465 182.087 34.4596C181.118 35.4541 179.884 35.9526 178.381 35.9526C176.803 35.9526 175.552 35.5206 174.628 34.6542C173.705 33.7878 173.242 32.6033 173.242 31.1031C173.242 29.6029 173.75 28.4018 174.764 27.3882C175.777 26.3746 177.035 25.8666 178.535 25.8666C180.036 25.8666 181.199 26.3343 182.134 27.2719C183.072 28.2095 183.539 29.3821 183.539 30.7945V30.7921ZM176.166 30.8111C176.166 32.2995 176.349 33.3866 176.715 34.075C177.08 34.761 177.655 35.1052 178.438 35.1052C179.221 35.1052 179.751 34.7705 180.102 34.1035C180.456 33.4365 180.631 32.4039 180.631 31.0034C180.631 29.5269 180.451 28.4374 180.093 27.73C179.734 27.025 179.174 26.6713 178.419 26.6713C177.624 26.6713 177.049 26.9918 176.696 27.6327C176.342 28.2736 176.166 29.3323 176.166 30.8087V30.8111Z" fill="#181818"/>
<path id="Vector_22" d="M185.972 35.758C185.561 35.7699 185.267 35.777 185.087 35.777H184.645V34.9676C185.172 34.9676 185.514 34.8964 185.675 34.7563C185.837 34.6163 185.915 34.3195 185.915 33.8709V29.0593C185.915 28.8932 185.813 28.6867 185.606 28.4445C185.4 28.2 185.06 27.8986 184.586 27.5402C184.56 27.5283 184.548 27.5093 184.548 27.4832C184.548 27.4571 184.56 27.4381 184.586 27.4262C184.714 27.3503 185.096 27.0963 185.73 26.6666C186.366 26.237 186.722 25.9901 186.798 25.926C186.824 25.926 186.846 25.9284 186.865 25.9355C186.883 25.9426 186.905 25.945 186.931 25.945C187.33 26.3177 187.641 26.669 187.864 27.0037C188.089 27.3384 188.232 27.6446 188.296 27.9271C188.759 27.2601 189.279 26.7497 189.855 26.396C190.432 26.0423 191.035 25.8667 191.664 25.8667C192.64 25.8667 193.359 26.161 193.82 26.7521C194.282 27.3431 194.513 28.2594 194.513 29.5056V33.9326C194.513 34.4335 194.577 34.7349 194.705 34.837C194.833 34.9391 195.161 34.9842 195.685 34.9723V35.7818H195.175C194.938 35.7818 194.529 35.7746 193.952 35.7628C193.554 35.7509 193.285 35.7438 193.143 35.7438H192.661C192.571 35.7438 192.405 35.7509 192.16 35.7628C191.776 35.7628 191.491 35.7651 191.303 35.7723C191.118 35.7794 190.966 35.7818 190.85 35.7818V34.9723C191.479 34.9723 191.847 34.9201 191.956 34.818C192.065 34.7159 192.12 34.4145 192.12 33.9136V30.2367C192.12 29.2991 191.966 28.6178 191.657 28.1858C191.348 27.7562 190.862 27.5402 190.195 27.5402C189.822 27.5402 189.49 27.5924 189.193 27.6944C188.899 27.7965 188.602 27.9698 188.308 28.2143V34.9699H189.54V35.7794H188.991C188.742 35.7794 188.327 35.7723 187.75 35.7604C187.377 35.7485 187.128 35.7414 187 35.7414H186.508C186.411 35.7414 186.228 35.7485 185.96 35.7604L185.972 35.758Z" fill="#181818"/>
</g>
</g>
</svg>
